# xmcd
#
# Track frame offsets: 
#        6087
#        39350
#        59847
#        86827
#        118185
#        132942
#        155397
#        176670
#        204980
#        232187
#
# Disc length: 3642 seconds
#
# Revision: 9
# Processed by: cddbd v1.5.2PL0 Copyright (c) Steve Scherf et al.
# Submitted via: ExactAudioCopy v1.0b3
#
DISCID=950de90a
DTITLE=Keita. Salif - Moffou
DYEAR=2002
DGENRE=African
TTITLE0=Yamore
TTITLE1=Iniagige
TTITLE2=Madan
TTITLE3=Katolon
TTITLE4=Souvent
TTITLE5=Moussoldu
TTITLE6=Baba
TTITLE7=Ana Na Ming
TTITLE8=Koukou
TTITLE9=Here
EXTD=YEAR: 2002
EXTT0=
EXTT1=
EXTT2=
EXTT3=
EXTT4=
EXTT5=
EXTT6=
EXTT7=
EXTT8=
EXTT9=
PLAYORDER=
